<?xml version="1.0" encoding="iso-8859-1"?>
<!-- Generator: Adobe Illustrator 16.0.0, SVG Export Plug-In . SVG Version: 6.00 Build 0)  -->
<!DOCTYPE svg PUBLIC "-//W3C//DTD SVG 1.1//EN" "http://www.w3.org/Graphics/SVG/1.1/DTD/svg11.dtd">
<svg version="1.1" id="Capa_1" xmlns="http://www.w3.org/2000/svg" xmlns:xlink="http://www.w3.org/1999/xlink" x="0px" y="0px"
	 width="444.704px" height="444.705px" viewBox="0 0 444.704 444.705" style="enable-background:new 0 0 444.704 444.705;"
	 xml:space="preserve">
<g>
	<g>
		<path d="M90.997,86.881h28.2c1.396,0,2.515-1.119,2.515-2.505c0-1.387-1.119-2.525-2.515-2.525h-28.2
			c-1.396,0-2.515,1.138-2.515,2.525C88.482,85.762,89.601,86.881,90.997,86.881z"/>
		<path d="M423.265,325.751v-28.199c0-1.387-1.118-2.506-2.515-2.506c-1.387,0-2.505,1.119-2.505,2.506v28.199
			c0,1.396,1.118,2.525,2.505,2.525C422.146,328.277,423.265,327.158,423.265,325.751z"/>
		<path d="M0,412.791c0,14.152,11.504,25.664,25.656,25.664h158.881c9.429,0,17.644-5.125,22.07-12.736
			c2.658-4.561,7.459-8.961,12.747-8.961h199.693c14.144,0,25.656-11.502,25.656-25.646v-158.89
			c0-14.153-11.504-25.656-25.656-25.656H220.062c-5.279,0-9.562,2.247-9.562,5.011s4.283,5.011,9.562,5.011h198.985
			c8.606,0,15.625,7.019,15.625,15.635v158.88c0,8.607-7.009,15.617-15.625,15.617H219.756c-5.278,0-9.562-2.219-9.562-4.963
			c0-2.736,4.284-4.963,9.562-4.963h180.712c1.396,0,2.516-1.119,2.516-2.506v-165.26c0-1.387-1.119-2.505-2.516-2.505H219.756
			c-5.278,0-9.562-4.284-9.562-9.562V86.097c0-14.162-11.504-25.666-25.656-25.666H25.656C11.514,60.431,0,71.935,0,86.097V412.791z
			 M219.756,231.533H388.41c5.278,0,9.562,4.283,9.562,9.562v141.123c0,5.279-4.284,9.562-9.562,9.562H219.756
			c-5.278,0-9.562-4.283-9.562-9.562V241.095C210.193,235.816,214.468,231.533,219.756,231.533z M200.162,86.097v326.694
			c0,8.625-6.999,15.635-15.625,15.635H25.656c-8.606,0-15.625-7-15.625-15.635V86.097c0-8.606,7.009-15.635,15.625-15.635h158.881
			C193.153,70.462,200.162,77.48,200.162,86.097z"/>
		<path d="M19.957,104.657v286.817c0,1.387,1.119,2.506,2.505,2.506h165.259c1.396,0,2.515-1.119,2.515-2.506V104.657
			c0-1.377-1.118-2.505-2.515-2.505H22.462C21.076,102.152,19.957,103.28,19.957,104.657z M34.54,107.163h141.114
			c5.278,0,9.562,4.284,9.562,9.562v262.692c0,5.277-4.284,9.562-9.562,9.562H34.54c-5.278,0-9.562-4.285-9.562-9.562V116.725
			C24.978,111.447,29.252,107.163,34.54,107.163z"/>
		<path d="M119.541,399.718H90.653c-5.929,0-10.758,4.818-10.758,10.758v1.721c0,5.938,4.829,10.758,10.758,10.758h28.888
			c5.929,0,10.758-4.82,10.758-10.758v-1.721C130.299,404.537,125.47,399.718,119.541,399.718z M125.288,412.187
			c0,3.176-2.572,5.748-5.747,5.748H90.653c-3.156,0-5.747-2.582-5.747-5.748v-1.721c0-3.156,2.591-5.738,5.747-5.738h28.888
			c3.175,0,5.747,2.582,5.747,5.738V412.187z"/>
		<path d="M258.14,15.363c-14.4-6.053-29.662-9.113-45.354-9.113c-29.644,0-57.939,10.959-79.666,30.896
			c0,0-0.268,0.239-0.622,0.564c-0.334,0.315,0.909,2.218,2.773,4.255c1.874,2.056,3.672,3.433,4.006,3.136l0.622-0.564
			c19.881-18.227,45.757-28.257,72.886-28.257c14.344,0,28.305,2.802,41.482,8.329c43.892,18.417,69.959,63.237,65.378,109.615
			c-0.363,3.682-3.729,5.757-7.267,4.686l-9.065-2.744c-3.529-1.081-4.982,0.688-3.242,3.939l12.623,23.648
			c1.74,3.251,5.785,4.485,9.046,2.745l23.639-12.623c3.261-1.74,3.031-4.016-0.507-5.097l-10.031-3.041
			c-3.538-1.062-5.862-4.896-5.441-8.559C335.357,85.762,306.736,35.76,258.14,15.363z"/>
	</g>
</g>
<g>
</g>
<g>
</g>
<g>
</g>
<g>
</g>
<g>
</g>
<g>
</g>
<g>
</g>
<g>
</g>
<g>
</g>
<g>
</g>
<g>
</g>
<g>
</g>
<g>
</g>
<g>
</g>
<g>
</g>
</svg>
